<?xml version="1.0" encoding="UTF-8" standalone="no"?>
<svg
   height="16px"
   viewBox="0 0 16 16"
   width="16px"
   version="1.1"
   id="svg1"
   sodipodi:docname="aciton-move-group-down2.svg"
   inkscape:version="1.3 (0e150ed6c4, 2023-07-21)"
   xmlns:inkscape="http://www.inkscape.org/namespaces/inkscape"
   xmlns:sodipodi="http://sodipodi.sourceforge.net/DTD/sodipodi-0.dtd"
   xmlns="http://www.w3.org/2000/svg"
   xmlns:svg="http://www.w3.org/2000/svg">
  <defs
     id="defs1" />
  <sodipodi:namedview
     id="namedview1"
     pagecolor="#ffffff"
     bordercolor="#666666"
     borderopacity="1.0"
     inkscape:showpageshadow="2"
     inkscape:pageopacity="0.0"
     inkscape:pagecheckerboard="0"
     inkscape:deskcolor="#d1d1d1"
     showgrid="true"
     inkscape:zoom="29.5"
     inkscape:cx="6.9152542"
     inkscape:cy="3.6271186"
     inkscape:window-width="1409"
     inkscape:window-height="1030"
     inkscape:window-x="0"
     inkscape:window-y="0"
     inkscape:window-maximized="1"
     inkscape:current-layer="svg1">
    <inkscape:grid
       id="grid1"
       units="px"
       originx="0"
       originy="0"
       spacingx="1"
       spacingy="1"
       empcolor="#0000ff"
       empopacity="0.25098039"
       color="#0000ff"
       opacity="0.1254902"
       empspacing="4"
       dotted="false"
       gridanglex="30"
       gridanglez="30"
       visible="true" />
  </sodipodi:namedview>
  <path
     d="M 1,7.0000002 C 1,6.7343752 1.105469,6.4804692 1.292969,6.2929692 1.683594,5.9023442 2.316406,5.9023442 2.707031,6.2929692 L 8,11.585938 13.292969,6.2929692 C 13.683594,5.9023442 14.316406,5.9023442 14.707031,6.2929692 14.894531,6.4804692 15,6.7343752 15,7.0000002 15,7.2656252 14.894531,7.5195312 14.707031,7.7070312 L 8.707031,13.707031 C 8.316406,14.097656 7.683594,14.097656 7.292969,13.707031 L 1.292969,7.7070312 C 1.105469,7.5195312 1,7.2656252 1,7.0000002 Z M 1,7.0000002"
     fill="#2e3436"
     id="path1" />
  <path
     d="M 1,3.0000005 C 1,2.7343755 1.105469,2.4804695 1.292969,2.2929695 1.683594,1.9023445 2.316406,1.9023445 2.707031,2.2929695 L 8,7.5859384 13.292968,2.2929695 C 13.683593,1.9023445 14.316405,1.9023445 14.70703,2.2929695 14.89453,2.4804695 14.999999,2.7343755 14.999999,3.0000005 14.999999,3.2656255 14.89453,3.5195315 14.70703,3.7070315 L 8.707031,9.7070314 C 8.316406,10.097657 7.683594,10.097657 7.292969,9.7070314 L 1.292969,3.7070315 C 1.105469,3.5195315 1,3.2656255 1,3.0000005 Z M 1,3.0000005"
     fill="#2e3436"
     id="path2" />
</svg>
