<?xml version="1.0" encoding="UTF-8" standalone="no"?>
<svg
   height="16px"
   viewBox="0 0 16 16"
   width="16px"
   version="1.1"
   id="svg1"
   sodipodi:docname="aciton-move-group-down3.svg"
   inkscape:version="1.3 (0e150ed6c4, 2023-07-21)"
   xmlns:inkscape="http://www.inkscape.org/namespaces/inkscape"
   xmlns:sodipodi="http://sodipodi.sourceforge.net/DTD/sodipodi-0.dtd"
   xmlns="http://www.w3.org/2000/svg"
   xmlns:svg="http://www.w3.org/2000/svg">
  <defs
     id="defs1" />
  <sodipodi:namedview
     id="namedview1"
     pagecolor="#ffffff"
     bordercolor="#666666"
     borderopacity="1.0"
     inkscape:showpageshadow="2"
     inkscape:pageopacity="0.0"
     inkscape:pagecheckerboard="0"
     inkscape:deskcolor="#d1d1d1"
     showgrid="true"
     inkscape:zoom="29.5"
     inkscape:cx="6.9152542"
     inkscape:cy="3.6271186"
     inkscape:window-width="1409"
     inkscape:window-height="1030"
     inkscape:window-x="0"
     inkscape:window-y="0"
     inkscape:window-maximized="1"
     inkscape:current-layer="svg1">
    <inkscape:grid
       id="grid1"
       units="px"
       originx="0"
       originy="0"
       spacingx="1"
       spacingy="1"
       empcolor="#0000ff"
       empopacity="0.25098039"
       color="#0000ff"
       opacity="0.1254902"
       empspacing="4"
       dotted="false"
       gridanglex="30"
       gridanglez="30"
       visible="true" />
  </sodipodi:namedview>
  <path
     d="M 1,9.0000004 C 1,8.7343754 1.105469,8.4804694 1.292969,8.2929694 1.683594,7.9023444 2.316406,7.9023444 2.707031,8.2929694 L 8,13.585938 13.292969,8.2929694 C 13.683594,7.9023444 14.316406,7.9023444 14.707031,8.2929694 14.894531,8.4804694 15,8.7343754 15,9.0000004 15,9.2656254 14.894531,9.5195314 14.707031,9.7070314 L 8.707031,15.707031 C 8.316406,16.097656 7.683594,16.097656 7.292969,15.707031 L 1.292969,9.7070314 C 1.105469,9.5195314 1,9.2656254 1,9.0000004 Z M 1,9.0000004"
     fill="#2e3436"
     id="path1" />
  <path
     d="M 1,5.0000007 C 1,4.7343757 1.105469,4.4804697 1.292969,4.2929697 1.683594,3.9023447 2.316406,3.9023447 2.707031,4.2929697 L 8,9.5859386 13.292968,4.2929697 C 13.683593,3.9023447 14.316405,3.9023447 14.70703,4.2929697 14.89453,4.4804697 14.999999,4.7343757 14.999999,5.0000007 14.999999,5.2656257 14.89453,5.5195317 14.70703,5.7070317 L 8.707031,11.707032 C 8.316406,12.097657 7.683594,12.097657 7.292969,11.707032 L 1.292969,5.7070317 C 1.105469,5.5195317 1,5.2656257 1,5.0000007 Z M 1,5.0000007"
     fill="#2e3436"
     id="path2" />
  <path
     d="M 1,1.0000001 C 1,0.73437515 1.105469,0.48046915 1.292969,0.29296915 1.683594,-0.09765585 2.316406,-0.09765585 2.707031,0.29296915 L 8,5.585938 13.292968,0.29296915 C 13.683593,-0.09765585 14.316405,-0.09765585 14.70703,0.29296915 14.89453,0.48046915 14.999999,0.73437515 14.999999,1.0000001 14.999999,1.2656251 14.89453,1.5195311 14.70703,1.7070311 L 8.707031,7.707031 C 8.316406,8.0976566 7.683594,8.0976566 7.292969,7.707031 L 1.292969,1.7070311 C 1.105469,1.5195311 1,1.2656251 1,1.0000001 Z M 1,1.0000001"
     fill="#2e3436"
     id="path3" />
</svg>
