<?xml version="1.0" encoding="UTF-8" standalone="no"?>
<!-- Created with Inkscape (http://www.inkscape.org/) -->

<svg
   width="493"
   height="312"
   viewBox="0 0 130.43958 82.549999"
   version="1.1"
   id="svg1"
   inkscape:version="1.3.2 (091e20ef0f, 2023-11-25, custom)"
   sodipodi:docname="dialog.svg"
   xmlns:inkscape="http://www.inkscape.org/namespaces/inkscape"
   xmlns:sodipodi="http://sodipodi.sourceforge.net/DTD/sodipodi-0.dtd"
   xmlns:xlink="http://www.w3.org/1999/xlink"
   xmlns="http://www.w3.org/2000/svg"
   xmlns:svg="http://www.w3.org/2000/svg">
  <sodipodi:namedview
     id="namedview1"
     pagecolor="#ffffff"
     bordercolor="#666666"
     borderopacity="1.0"
     inkscape:showpageshadow="2"
     inkscape:pageopacity="0.0"
     inkscape:pagecheckerboard="0"
     inkscape:deskcolor="#d1d1d1"
     inkscape:document-units="px"
     inkscape:zoom="1.6819304"
     inkscape:cx="46.375284"
     inkscape:cy="205.12145"
     inkscape:window-width="1397"
     inkscape:window-height="1150"
     inkscape:window-x="0"
     inkscape:window-y="0"
     inkscape:window-maximized="0"
     inkscape:current-layer="layer1" />
  <defs
     id="defs1">
    <linearGradient
       inkscape:collect="always"
       xlink:href="#linearGradient1"
       id="linearGradient2"
       x1="0"
       y1="0"
       x2="0"
       y2="82.549995"
       gradientUnits="userSpaceOnUse" />
    <linearGradient
       id="linearGradient1"
       inkscape:collect="always">
      <stop
         style="stop-color:#bcebf1;stop-opacity:1;"
         offset="0"
         id="stop1" />
      <stop
         style="stop-color:#fffeec;stop-opacity:1;"
         offset="1"
         id="stop2" />
    </linearGradient>
  </defs>
  <g
     inkscape:label="Layer 1"
     inkscape:groupmode="layer"
     id="layer1">
    <rect
       style="color:#000000;overflow:visible;fill:url(#linearGradient2);stroke-width:0.529167;stroke-linejoin:round;paint-order:markers fill stroke;font-variation-settings:normal;opacity:1;vector-effect:none;fill-opacity:1;stroke-linecap:round;stroke-miterlimit:4;stroke-dasharray:none;stroke-dashoffset:0;stroke-opacity:1;-inkscape-stroke:none;stop-color:#000000;stop-opacity:1"
       id="rect1"
       width="43.391666"
       height="82.549995"
       x="0"
       y="0" />
    <g
       id="g3"
       transform="matrix(0.33440309,0,0,0.33440309,27.480955,18.061439)">
      <g
         id="g2"
         transform="matrix(1.802474,0,0,1.802474,-168.02696,12.005473)">
        <path
           style="color:#000000;font-variation-settings:normal;overflow:visible;vector-effect:none;fill:#e9e9e9;fill-opacity:1;stroke:none;stroke-width:2;stroke-linecap:butt;stroke-linejoin:round;stroke-miterlimit:4;stroke-dasharray:none;stroke-dashoffset:0;stroke-opacity:1;-inkscape-stroke:none;paint-order:markers fill stroke;stop-color:#000000"
           d="M 63.500027,-24.5011 68.500002,-28.501102 V -19.001101 L 63.500027,-14.501101 Z"
           id="path3" />
        <path
           style="color:#000000;overflow:visible;fill:#fffeec;fill-opacity:1;stroke:none;stroke-width:2;stroke-linejoin:round;stroke-opacity:1;paint-order:markers fill stroke"
           d="M 53.999995,-26.0011 59.492972,-29.500001 68.500002,-28.501102 63.500027,-24.5011 Z"
           id="path1"
           sodipodi:nodetypes="ccccc" />
        <path
           style="color:#000000;overflow:visible;fill:#bcebf1;fill-opacity:1;stroke:none;stroke-width:2;stroke-linejoin:round;stroke-opacity:1;paint-order:markers fill stroke"
           d="M 53.999995,-26.0011 63.500027,-24.5011 V -14.501101 L 53.500002,-16.001101 Z"
           id="path2" />
        <path
           sodipodi:nodetypes="cc"
           inkscape:connector-curvature="0"
           id="path6915"
           d="M 68.500002,-19.001101 V -28.501102"
           style="color:#000000;clip-rule:nonzero;display:inline;overflow:visible;visibility:visible;isolation:auto;mix-blend-mode:normal;color-interpolation:sRGB;color-interpolation-filters:linearRGB;solid-color:#000000;solid-opacity:1;vector-effect:none;fill:none;fill-opacity:1;fill-rule:nonzero;stroke:#010101;stroke-width:0.999999;stroke-linecap:round;stroke-linejoin:round;stroke-miterlimit:4;stroke-dasharray:none;stroke-dashoffset:0;stroke-opacity:1;marker:none;color-rendering:auto;image-rendering:auto;shape-rendering:auto;text-rendering:auto;enable-background:accumulate" />
        <path
           sodipodi:nodetypes="cc"
           inkscape:connector-curvature="0"
           id="path6917"
           d="M 63.500027,-14.501101 68.500002,-19.001101"
           style="color:#000000;clip-rule:nonzero;display:inline;overflow:visible;visibility:visible;isolation:auto;mix-blend-mode:normal;color-interpolation:sRGB;color-interpolation-filters:linearRGB;solid-color:#000000;solid-opacity:1;vector-effect:none;fill:none;fill-opacity:1;fill-rule:nonzero;stroke:#010101;stroke-width:0.999999;stroke-linecap:butt;stroke-linejoin:round;stroke-miterlimit:4;stroke-dasharray:none;stroke-dashoffset:0;stroke-opacity:1;marker:none;color-rendering:auto;image-rendering:auto;shape-rendering:auto;text-rendering:auto;enable-background:accumulate" />
        <path
           sodipodi:nodetypes="cc"
           inkscape:connector-curvature="0"
           id="path6923"
           d="M 63.500027,-24.5011 53.500002,-26.0011"
           style="vector-effect:none;fill:none;fill-opacity:1;fill-rule:evenodd;stroke:#010101;stroke-width:0.999999;stroke-linecap:butt;stroke-linejoin:round;stroke-miterlimit:4;stroke-dasharray:none;stroke-dashoffset:0;stroke-opacity:1;marker:none" />
        <path
           sodipodi:nodetypes="cc"
           inkscape:connector-curvature="0"
           id="path6921"
           d="M 63.500027,-24.5011 68.500002,-28.501102"
           style="vector-effect:none;fill:none;fill-opacity:1;fill-rule:evenodd;stroke:#010101;stroke-width:0.999999;stroke-linecap:butt;stroke-linejoin:round;stroke-miterlimit:4;stroke-dasharray:none;stroke-dashoffset:0;stroke-opacity:1;marker:none" />
        <path
           sodipodi:nodetypes="cc"
           inkscape:connector-curvature="0"
           id="path6927"
           d="M 59.492972,-29.500001 68.500002,-28.501102"
           style="vector-effect:none;fill:none;fill-opacity:1;fill-rule:evenodd;stroke:#010101;stroke-width:0.999999;stroke-linecap:round;stroke-linejoin:round;stroke-miterlimit:4;stroke-dasharray:none;stroke-dashoffset:0;stroke-opacity:1;marker:none" />
        <path
           sodipodi:nodetypes="cc"
           inkscape:connector-curvature="0"
           id="path6925"
           d="M 59.492972,-29.500001 53.500002,-26.0011"
           style="vector-effect:none;fill:none;fill-opacity:1;fill-rule:evenodd;stroke:#010101;stroke-width:0.999999;stroke-linecap:round;stroke-linejoin:round;stroke-miterlimit:4;stroke-dasharray:none;stroke-dashoffset:0;stroke-opacity:1;marker:none" />
        <path
           sodipodi:nodetypes="cc"
           inkscape:connector-curvature="0"
           id="path6913"
           d="M 63.500027,-14.501101 53.500002,-16.001101"
           style="color:#000000;clip-rule:nonzero;display:inline;overflow:visible;visibility:visible;isolation:auto;mix-blend-mode:normal;color-interpolation:sRGB;color-interpolation-filters:linearRGB;solid-color:#000000;solid-opacity:1;vector-effect:none;fill:none;fill-opacity:1;fill-rule:nonzero;stroke:#010101;stroke-width:0.999999;stroke-linecap:round;stroke-linejoin:round;stroke-miterlimit:4;stroke-dasharray:none;stroke-dashoffset:0;stroke-opacity:1;marker:none;color-rendering:auto;image-rendering:auto;shape-rendering:auto;text-rendering:auto;enable-background:accumulate" />
        <path
           sodipodi:nodetypes="cc"
           inkscape:connector-curvature="0"
           id="path6911"
           d="M 53.500002,-16.001101 V -26.0011"
           style="color:#000000;clip-rule:nonzero;display:inline;overflow:visible;visibility:visible;isolation:auto;mix-blend-mode:normal;color-interpolation:sRGB;color-interpolation-filters:linearRGB;solid-color:#000000;solid-opacity:1;vector-effect:none;fill:none;fill-opacity:1;fill-rule:nonzero;stroke:#010101;stroke-width:0.999999;stroke-linecap:butt;stroke-linejoin:round;stroke-miterlimit:4;stroke-dasharray:none;stroke-dashoffset:0;stroke-opacity:1;marker:none;color-rendering:auto;image-rendering:auto;shape-rendering:auto;text-rendering:auto;enable-background:accumulate" />
        <path
           sodipodi:nodetypes="cc"
           inkscape:connector-curvature="0"
           id="path6919"
           d="M 63.500027,-14.501101 V -24.5011"
           style="vector-effect:none;fill:none;fill-opacity:1;fill-rule:evenodd;stroke:#010101;stroke-width:0.999999;stroke-linecap:butt;stroke-linejoin:round;stroke-miterlimit:4;stroke-dasharray:none;stroke-dashoffset:0;stroke-opacity:1;marker:none" />
      </g>
      <path
         style="font-weight:bold;font-size:45.3543px;line-height:78.018px;font-family:Roboto;-inkscape-font-specification:'Roboto Bold';letter-spacing:0px;word-spacing:0px;stroke-width:0.264583px"
         d="M -37.099358,-27.092449 V -35.623694 H -34.474361 Q -33.34936,-35.623694 -32.464596,-35.113929 -31.573972,-34.610022 -31.075926,-33.672523 -30.577879,-32.740883 -30.577879,-31.551431 V -31.158853 Q -30.577879,-29.9694 -31.070065,-29.04362 -31.556393,-28.117839 -32.447018,-27.608074 -33.337642,-27.098309 -34.456782,-27.092449 Z M -35.341546,-34.199866 V -28.504558 H -34.491937 Q -33.460689,-28.504558 -32.915767,-29.178385 -32.370847,-29.852213 -32.359126,-31.106119 V -31.55729 Q -32.359126,-32.85807 -32.89819,-33.526039 -33.437252,-34.199866 -34.474361,-34.199866 Z M -25.614992,-27.73698 Q -26.241943,-26.975262 -27.349365,-26.975262 -28.368894,-26.975262 -28.907956,-27.561199 -29.44116,-28.147136 -29.452879,-29.277995 V -33.432289 H -27.759522 V -29.336589 Q -27.759522,-28.346355 -26.857179,-28.346355 -25.995849,-28.346355 -25.673584,-28.944011 V -33.432289 H -23.974366 V -27.092449 H -25.568116 Z M -21.13843,-33.432289 -21.085696,-32.699868 Q -20.40601,-33.549476 -19.263431,-33.549476 -18.25562,-33.549476 -17.763434,-32.95768 -17.271245,-32.365883 -17.259527,-31.18815 V -27.092449 H -18.952884 V -31.147134 Q -18.952884,-31.686196 -19.18726,-31.92643 -19.421636,-32.172524 -19.966556,-32.172524 -20.681399,-32.172524 -21.038822,-31.56315 V -27.092449 H -22.732179 V -33.432289 Z M -13.058359,-26.975262 Q -14.45289,-26.975262 -15.331794,-27.83073 -16.204842,-28.686198 -16.204842,-30.110025 V -30.274088 Q -16.204842,-31.229165 -15.835701,-31.979165 -15.466559,-32.735024 -14.792732,-33.13932 -14.113046,-33.549476 -13.245859,-33.549476 -11.945077,-33.549476 -11.200939,-32.729164 -10.450938,-31.908852 -10.450938,-30.402994 V -29.711588 H -14.488046 Q -14.406014,-29.090495 -13.995857,-28.715495 -13.579842,-28.340495 -12.94703,-28.340495 -11.968516,-28.340495 -11.417736,-29.049479 L -10.585703,-28.117839 Q -10.966563,-27.578777 -11.616954,-27.27409 -12.267345,-26.975262 -13.058359,-26.975262 Z M -13.251719,-32.178383 Q -13.755623,-32.178383 -14.072031,-31.83854 -14.382577,-31.498696 -14.470467,-30.865884 H -12.115 V -31.00065 Q -12.126719,-31.56315 -12.419687,-31.867837 -12.712657,-32.178383 -13.251719,-32.178383 Z M -4.8493807,-32.108071 H -3.9470378 Q -3.3025049,-32.108071 -2.9919581,-32.430337 -2.6814114,-32.752602 -2.6814114,-33.285805 -2.6814114,-33.801429 -2.9919581,-34.088538 -3.296647,-34.375648 -3.8357091,-34.375648 -4.3220371,-34.375648 -4.6501601,-34.106117 -4.9782857,-33.842445 -4.9782857,-33.414711 H -6.6716429 Q -6.6716429,-34.082679 -6.3142225,-34.610022 -5.9509417,-35.143225 -5.3064114,-35.442053 -4.6560206,-35.740881 -3.8767248,-35.740881 -2.5232091,-35.740881 -1.7556317,-35.090491 -0.98805428,-34.44596 -0.98805428,-33.309242 -0.98805428,-32.723305 -1.3454746,-32.231118 -1.7028976,-31.738931 -2.2829754,-31.475259 -1.5622715,-31.217447 -1.2107091,-30.701822 -0.85328876,-30.186197 -0.85328876,-29.483073 -0.85328876,-28.346355 -1.6853187,-27.660808 -2.5114907,-26.975262 -3.8767248,-26.975262 -5.154067,-26.975262 -5.9685206,-27.64909 -6.7771137,-28.322917 -6.7771137,-29.430338 H -5.083754 Q -5.083754,-28.94987 -4.7263336,-28.645183 -4.3630528,-28.340495 -3.8357091,-28.340495 -3.2321945,-28.340495 -2.8923505,-28.656901 -2.5466459,-28.979167 -2.5466459,-29.50651 -2.5466459,-30.783853 -3.9528957,-30.783853 H -4.8493807 Z M 0.49436643,-27.092449 V -35.623694 H 3.1193638 Q 4.2443642,-35.623694 5.1291282,-35.113929 6.0197527,-34.610022 6.5177991,-33.672523 7.0158455,-32.740883 7.0158455,-31.551431 V -31.158853 Q 7.0158455,-29.9694 6.5236596,-29.04362 6.0373316,-28.117839 5.1467071,-27.608074 4.2560826,-27.098309 3.1369427,-27.092449 Z M 2.2521761,-34.199866 V -28.504558 H 3.1017849 Q 4.1330355,-28.504558 4.677958,-29.178385 5.222878,-29.852213 5.2345964,-31.106119 V -31.55729 Q 5.2345964,-32.85807 4.6955343,-33.526039 4.1564722,-34.199866 3.1193638,-34.199866 Z"
         id="text1"
         aria-label="Dune 3D" />
      <path
         style="font-size:34.0157px;line-height:58.5135px;font-family:Roboto;-inkscape-font-specification:Roboto;letter-spacing:0px;word-spacing:0px;stroke-width:0.264583px"
         d="M -33.229248,-20.597934 Q -33.229248,-19.512486 -33.725828,-18.848913 -34.222409,-18.18534 -35.070552,-18.18534 -35.936274,-18.18534 -36.432857,-18.734656 V -16.445109 H -37.245842 V -23.028106 H -36.503167 L -36.463617,-22.500764 Q -35.967037,-23.115997 -35.083736,-23.115997 -34.226803,-23.115997 -33.730223,-22.470002 -33.229248,-21.824007 -33.229248,-20.672641 Z M -34.042233,-20.690219 Q -34.042233,-21.494417 -34.385006,-21.960237 -34.727779,-22.426057 -35.325435,-22.426057 -36.063716,-22.426057 -36.432857,-21.771272 V -19.499303 Q -36.06811,-18.848913 -35.316646,-18.848913 -34.732173,-18.848913 -34.3894,-19.310338 -34.042233,-19.776158 -34.042233,-20.690219 Z M -29.26099,-18.27323 Q -29.331303,-18.413855 -29.375247,-18.774206 -29.942141,-18.18534 -30.728763,-18.18534 -31.431885,-18.18534 -31.884521,-18.580847 -32.332765,-18.980749 -32.332765,-19.591588 -32.332765,-20.334263 -31.770264,-20.742953 -31.20337,-21.156039 -30.179446,-21.156039 H -29.388432 V -21.529573 Q -29.388432,-21.955843 -29.643315,-22.206331 -29.898196,-22.461213 -30.39478,-22.461213 -30.829837,-22.461213 -31.12427,-22.241486 -31.418704,-22.02176 -31.418704,-21.709749 H -32.236084 Q -32.236084,-22.065706 -31.985597,-22.395295 -31.730714,-22.729279 -31.300051,-22.922638 -30.864992,-23.115997 -30.346438,-23.115997 -29.524663,-23.115997 -29.058843,-22.702912 -28.593023,-22.294221 -28.575444,-21.573519 V -19.385045 Q -28.575444,-18.730261 -28.408452,-18.343543 V -18.27323 Z M -30.610111,-18.892858 Q -30.227785,-18.892858 -29.885012,-19.090612 -29.542239,-19.288366 -29.388432,-19.604772 V -20.580356 H -30.025638 Q -31.519777,-20.580356 -31.519777,-19.705846 -31.519777,-19.323522 -31.264894,-19.10819 -31.010013,-18.892858 -30.610111,-18.892858 Z M -25.002696,-22.298615 Q -25.187266,-22.329377 -25.402597,-22.329377 -26.202401,-22.329377 -26.488045,-21.648226 V -18.27323 H -27.301033 V -23.028106 H -26.510019 L -26.496835,-22.478791 Q -26.096933,-23.115997 -25.363048,-23.115997 -25.125743,-23.115997 -25.002696,-23.054474 Z M -21.495866,-18.27323 Q -21.566179,-18.413855 -21.610124,-18.774206 -22.177017,-18.18534 -22.963637,-18.18534 -23.666761,-18.18534 -24.119397,-18.580847 -24.567639,-18.980749 -24.567639,-19.591588 -24.567639,-20.334263 -24.00514,-20.742953 -23.438246,-21.156039 -22.414322,-21.156039 H -21.623305 V -21.529573 Q -21.623305,-21.955843 -21.878189,-22.206331 -22.133072,-22.461213 -22.629653,-22.461213 -23.06471,-22.461213 -23.359144,-22.241486 -23.653577,-22.02176 -23.653577,-21.709749 H -24.47096 Q -24.47096,-22.065706 -24.220471,-22.395295 -23.965587,-22.729279 -23.534925,-22.922638 -23.099868,-23.115997 -22.581314,-23.115997 -21.759536,-23.115997 -21.293716,-22.702912 -20.827896,-22.294221 -20.81032,-21.573519 V -19.385045 Q -20.81032,-18.730261 -20.643328,-18.343543 V -18.27323 Z M -22.844984,-18.892858 Q -22.462661,-18.892858 -22.119888,-19.090612 -21.777115,-19.288366 -21.623305,-19.604772 V -20.580356 H -22.260512 Q -23.754651,-20.580356 -23.754651,-19.705846 -23.754651,-19.323522 -23.49977,-19.10819 -23.244886,-18.892858 -22.844984,-18.892858 Z M -18.771258,-23.028106 -18.749285,-22.500764 Q -18.226338,-23.115997 -17.338643,-23.115997 -16.341087,-23.115997 -15.980735,-22.35135 -15.74343,-22.694123 -15.365502,-22.90506 -14.983179,-23.115997 -14.464625,-23.115997 -12.900173,-23.115997 -12.873807,-21.459261 V -18.27323 H -13.686792 V -21.410921 Q -13.686792,-21.920686 -13.919702,-22.171174 -14.152612,-22.426057 -14.701927,-22.426057 -15.154565,-22.426057 -15.453391,-22.153596 -15.752219,-21.88553 -15.800559,-21.428499 V -18.27323 H -16.617941 V -21.388949 Q -16.617941,-22.426057 -17.633076,-22.426057 -18.43288,-22.426057 -18.727314,-21.744905 V -18.27323 H -19.540301 V -23.028106 Z M -9.6745896,-18.18534 Q -10.641388,-18.18534 -11.247831,-18.818152 -11.854275,-19.455358 -11.854275,-20.518833 V -20.668247 Q -11.854275,-21.375765 -11.586209,-21.929475 -11.313749,-22.48758 -10.83035,-22.799591 -10.342559,-23.115997 -9.7756657,-23.115997 -8.8484202,-23.115997 -8.3342607,-22.505158 -7.8201012,-21.894319 -7.8201012,-20.756137 V -20.417759 H -11.041289 Q -11.023711,-19.714635 -10.632598,-19.279577 -10.237091,-18.848913 -9.6306449,-18.848913 -9.1999827,-18.848913 -8.9011543,-19.024694 -8.602326,-19.200475 -8.3782053,-19.490514 L -7.8816248,-19.103796 Q -8.4792788,-18.18534 -9.6745896,-18.18534 Z M -9.7756657,-22.448029 Q -10.267852,-22.448029 -10.601835,-22.087678 -10.935819,-21.731722 -11.014921,-21.085726 H -8.6330891 V -21.14725 Q -8.6682442,-21.766878 -8.9670726,-22.105256 -9.2659009,-22.448029 -9.7756657,-22.448029 Z M -5.7766474,-24.179472 V -23.028106 H -4.8889545 V -22.39969 H -5.7766474 V -19.450963 Q -5.7766474,-19.165319 -5.657995,-19.0203 -5.5393426,-18.879675 -5.2536985,-18.879675 -5.1130751,-18.879675 -4.8669808,-18.932409 V -18.27323 Q -5.1877802,-18.18534 -5.4910033,-18.18534 -6.0359259,-18.18534 -6.3127806,-18.514929 -6.5896353,-18.844519 -6.5896353,-19.450963 V -22.39969 H -7.4553572 V -23.028106 H -6.5896353 V -24.179472 Z M -1.6414005,-22.298615 Q -1.8259712,-22.329377 -2.0413023,-22.329377 -2.841106,-22.329377 -3.1267501,-21.648226 V -18.27323 H -3.939738 V -23.028106 H -3.1487211 L -3.1355396,-22.478791 Q -2.7356378,-23.115997 -2.0017524,-23.115997 -1.7644476,-23.115997 -1.6414005,-23.054474 Z M -0.0110327,-18.27323 H -0.8240179 V -23.028106 H -0.0110327 Z M -0.88993619,-24.289335 Q -0.88993619,-24.487089 -0.7712838,-24.623319 -0.64823932,-24.75955 -0.41093453,-24.75955 -0.17362974,-24.75955 -0.05058262,-24.623319 0.0724645,-24.487089 0.0724645,-24.289335 0.0724645,-24.091582 -0.05058262,-23.959746 -0.17362974,-23.82791 -0.41093453,-23.82791 -0.64823932,-23.82791 -0.7712838,-23.959746 -0.88993619,-24.091582 -0.88993619,-24.289335 Z M 3.1969714,-18.848913 Q 3.632031,-18.848913 3.9572251,-19.112585 4.2824192,-19.376256 4.317577,-19.771764 H 5.0866176 Q 5.0646466,-19.363073 4.8053682,-18.993932 4.5460924,-18.624792 4.1110327,-18.405066 3.6803704,-18.18534 3.1969714,-18.18534 2.2257812,-18.18534 1.6501008,-18.831335 1.0788125,-19.481725 1.0788125,-20.606723 V -20.742953 Q 1.0788125,-21.437288 1.3336935,-21.977815 1.5885773,-22.518342 2.0631842,-22.817169 2.5421885,-23.115997 3.1925793,-23.115997 3.9923803,-23.115997 4.519724,-22.636994 5.0514624,-22.157991 5.0866176,-21.393343 H 4.317577 Q 4.2824192,-21.854768 3.9660146,-22.149202 3.654002,-22.448029 3.1925793,-22.448029 2.572949,-22.448029 2.230176,-21.999788 1.8917977,-21.555941 1.8917977,-20.712192 V -20.558384 Q 1.8917977,-19.736607 2.230176,-19.29276 2.5685542,-18.848913 3.1969714,-18.848913 Z M 9.3273327,-21.867952 H 9.9381736 Q 10.513857,-21.876741 10.843445,-22.171174 11.173034,-22.465607 11.173034,-22.966583 11.173034,-24.091582 10.052431,-24.091582 9.5250876,-24.091582 9.2086803,-23.788359 8.8966705,-23.489532 8.8966705,-22.992951 H 8.0836826 Q 8.0836826,-23.753203 8.637392,-24.254179 9.1954988,-24.75955 10.052431,-24.75955 10.957703,-24.75955 11.471863,-24.280546 11.986022,-23.801543 11.986022,-22.949005 11.986022,-22.531525 11.713562,-22.140412 11.445494,-21.7493 10.979674,-21.555941 11.507018,-21.388949 11.792662,-21.002231 12.082701,-20.615512 12.082701,-20.057408 12.082701,-19.196081 11.520202,-18.69071 10.957703,-18.18534 10.056826,-18.18534 9.1559462,-18.18534 8.5890526,-18.673132 8.0265538,-19.160925 8.0265538,-19.960728 H 8.8439364 Q 8.8439364,-19.455358 9.1735252,-19.152135 9.503114,-18.848913 10.056826,-18.848913 10.645691,-18.848913 10.957703,-19.15653 11.269713,-19.464147 11.269713,-20.03983 11.269713,-20.597934 10.92694,-20.896762 10.584167,-21.19559 9.9381736,-21.204379 H 9.3273327 Z M 13.409848,-18.27323 V -24.671659 H 15.215997 Q 16.050959,-24.671659 16.692557,-24.302519 17.334159,-23.933379 17.681326,-23.252227 18.032889,-22.571076 18.037284,-21.687777 V -21.279086 Q 18.037284,-20.373813 17.685721,-19.692662 17.338553,-19.011511 16.688165,-18.646765 16.042169,-18.282019 15.180842,-18.27323 Z M 14.253597,-23.977324 V -18.963171 H 15.141292 Q 16.116877,-18.963171 16.657402,-19.569615 17.202325,-20.17606 17.202325,-21.296664 V -21.670198 Q 17.202325,-22.76004 16.688165,-23.362091 16.178398,-23.968535 15.237971,-23.977324 Z M 26.246254,-20.303501 Q 26.127602,-19.288366 25.49479,-18.734656 24.866373,-18.18534 23.820477,-18.18534 22.68669,-18.18534 22.001144,-18.998327 21.319993,-19.811314 21.319993,-21.173617 V -21.788851 Q 21.319993,-22.680939 21.636397,-23.357696 21.957197,-24.034453 22.541669,-24.394804 23.126142,-24.75955 23.895182,-24.75955 24.914712,-24.75955 25.529948,-24.188261 26.145181,-23.621367 26.246254,-22.615021 H 25.398111 Q 25.288248,-23.379669 24.919107,-23.722442 24.554363,-24.065215 23.895182,-24.065215 23.086592,-24.065215 22.625167,-23.467559 22.168136,-22.869904 22.168136,-21.766878 V -21.14725 Q 22.168136,-20.105747 22.603193,-19.490514 23.03825,-18.87528 23.820477,-18.87528 24.5236,-18.87528 24.897136,-19.191686 25.275064,-19.512486 25.398111,-20.303501 Z M 30.930818,-19.94315 H 28.250158 L 27.648109,-18.27323 H 26.777992 L 29.221348,-24.671659 H 29.959628 L 32.407378,-18.27323 H 31.541659 Z M 28.505042,-20.637485 H 30.680332 L 29.590489,-23.630157 Z M 33.268708,-18.27323 V -24.671659 H 35.07486 Q 35.909819,-24.671659 36.55142,-24.302519 37.193022,-23.933379 37.540187,-23.252227 37.891749,-22.571076 37.896144,-21.687777 V -21.279086 Q 37.896144,-20.373813 37.544581,-19.692662 37.197416,-19.011511 36.547025,-18.646765 35.901029,-18.282019 35.039702,-18.27323 Z M 34.112459,-23.977324 V -18.963171 H 35.000152 Q 35.975737,-18.963171 36.516262,-19.569615 37.061185,-20.17606 37.061185,-21.296664 V -21.670198 Q 37.061185,-22.76004 36.547025,-23.362091 36.037261,-23.968535 35.096831,-23.977324 Z"
         id="text2"
         aria-label="parametric 3D CAD" />
    </g>
  </g>
</svg>
